<?xml version="1.0" encoding="utf-8"?>
<!-- Generator: Adobe Illustrator 17.0.0, SVG Export Plug-In . SVG Version: 6.00 Build 0)  -->
<!DOCTYPE svg PUBLIC "-//W3C//DTD SVG 1.1//EN" "http://www.w3.org/Graphics/SVG/1.1/DTD/svg11.dtd">
<svg version="1.1" id="Layer_1" xmlns="http://www.w3.org/2000/svg" xmlns:xlink="http://www.w3.org/1999/xlink" x="0px" y="0px"
	 width="12.808px" height="10px" viewBox="0 0 12.808 10" enable-background="new 0 0 12.808 10" xml:space="preserve">
<path fill="#242021" d="M0.492,0h0.01h11.815c0.269,0,0.492,0.223,0.492,0.494v0.013v9.002c0,0.271-0.223,0.492-0.492,0.492h-0.015
	H0.492C0.218,10,0,9.78,0,9.508V9.496V0.494C0,0.223,0.218,0,0.492,0L0.492,0z M11.825,1.414L11.825,1.414l-5.21,5.21
	c-0.117,0.117-0.304,0.117-0.421,0l-5.21-5.208v7.597h10.841V1.414L11.825,1.414z M11.414,0.986L11.414,0.986H1.389l5.013,5.013
	L11.414,0.986L11.414,0.986z"/>
</svg>
