<?xml version="1.0" encoding="utf-8"?>
<!-- Generator: Adobe Illustrator 17.0.0, SVG Export Plug-In . SVG Version: 6.00 Build 0)  -->
<!DOCTYPE svg PUBLIC "-//W3C//DTD SVG 1.1//EN" "http://www.w3.org/Graphics/SVG/1.1/DTD/svg11.dtd">
<svg version="1.1" id="Layer_1" xmlns="http://www.w3.org/2000/svg" xmlns:xlink="http://www.w3.org/1999/xlink" x="0px" y="0px"
	 width="15.667px" height="20px" viewBox="0 0 15.667 20" enable-background="new 0 0 15.667 20" xml:space="preserve">
<g>
	<path fill="#1D1D1D" d="M7.833,0.941c1.841,0,3.572,0.717,4.874,2.019c1.302,1.302,2.019,3.032,2.019,4.874
		c0,1.083-0.244,2.12-0.725,3.08c-0.818,1.634-4.031,5.481-6.168,7.736c-2.137-2.255-5.35-6.102-6.168-7.736
		c-0.481-0.961-0.725-1.997-0.725-3.08C0.941,4.033,4.033,0.941,7.833,0.941 M7.833,0C3.507,0,0,3.507,0,7.833
		c0,1.259,0.297,2.448,0.824,3.501C1.833,13.35,5.926,18.092,7.833,20c1.907-1.908,6-6.65,7.009-8.665
		c0.527-1.053,0.824-2.243,0.824-3.501c0-2.163-0.877-4.121-2.294-5.539C11.955,0.877,9.996,0,7.833,0L7.833,0z"/>
	<path fill="#1D1D1D" d="M7.833,5.067c1.383,0,2.509,1.125,2.509,2.509s-1.125,2.509-2.509,2.509S5.325,8.959,5.325,7.576
		S6.45,5.067,7.833,5.067 M7.833,4.127c-1.905,0-3.449,1.544-3.449,3.449s1.544,3.449,3.449,3.449s3.449-1.544,3.449-3.449
		S9.738,4.127,7.833,4.127L7.833,4.127z"/>
</g>
</svg>
