<?xml version="1.0" encoding="utf-8"?>
<!-- Generator: Adobe Illustrator 17.0.0, SVG Export Plug-In . SVG Version: 6.00 Build 0)  -->
<!DOCTYPE svg PUBLIC "-//W3C//DTD SVG 1.1//EN" "http://www.w3.org/Graphics/SVG/1.1/DTD/svg11.dtd">
<svg version="1.1" id="Layer_1" xmlns="http://www.w3.org/2000/svg" xmlns:xlink="http://www.w3.org/1999/xlink" x="0px" y="0px"
	 width="9.74px" height="13.868px" viewBox="-0.716 0 9.74 13.868" enable-background="new -0.716 0 9.74 13.868"
	 xml:space="preserve">
<g>
	<g>
		<path fill="#231F20" d="M3.952,10.221c0.438,0,0.777,0.116,1.017,0.348c0.241,0.232,0.361,0.565,0.361,0.998
			c0,0.417-0.121,0.745-0.364,0.986c-0.243,0.241-0.581,0.36-1.014,0.36c-0.443,0-0.787-0.118-1.03-0.353
			c-0.243-0.235-0.364-0.566-0.364-0.994c0-0.443,0.12-0.779,0.356-1.006C3.152,10.335,3.498,10.221,3.952,10.221 M3.952,9.221
			c-0.715,0-1.295,0.206-1.726,0.613c-0.309,0.298-0.669,0.833-0.669,1.733c0,0.88,0.363,1.417,0.668,1.712
			c0.437,0.421,1.017,0.634,1.725,0.634c0.877,0,1.418-0.353,1.718-0.65c0.301-0.298,0.661-0.835,0.661-1.697
			c0-0.889-0.362-1.425-0.666-1.718C5.234,9.433,4.658,9.221,3.952,9.221L3.952,9.221z"/>
	</g>
	<g>
		<path fill="#231F20" d="M4.419,0.954c1.088,0,1.953,0.262,2.593,0.785C7.654,2.262,7.975,2.959,7.975,3.83
			c0,0.581-0.132,1.082-0.396,1.505C7.315,5.757,6.813,6.232,6.074,6.76C5.567,7.135,5.247,7.42,5.112,7.615
			C4.978,7.811,4.91,8.067,4.91,8.383v0.475H2.812V8.272c0-0.507,0.108-0.948,0.324-1.323c0.217-0.375,0.613-0.774,1.189-1.196
			c0.554-0.396,0.92-0.718,1.097-0.966c0.177-0.248,0.266-0.525,0.266-0.831c0-0.343-0.127-0.605-0.38-0.784
			C5.054,2.992,4.699,2.903,4.245,2.903c-0.793,0-1.694,0.259-2.708,0.776L0.673,1.944C1.85,1.284,3.099,0.954,4.419,0.954
			 M4.419-0.046c-1.489,0-2.914,0.376-4.236,1.118l-0.83,0.466l0.425,0.852l0.864,1.734l0.45,0.904L1.991,4.57
			c0.867-0.443,1.626-0.667,2.254-0.667c0.246,0,0.378,0.037,0.44,0.062C4.681,4.071,4.657,4.138,4.607,4.207
			C4.569,4.262,4.391,4.477,3.744,4.939C3.039,5.456,2.561,5.947,2.271,6.448C1.966,6.976,1.812,7.589,1.812,8.272v0.586v1h1H4.91h1
			v-1V8.383c0-0.127,0.021-0.192,0.029-0.206c0.006-0.007,0.138-0.175,0.73-0.613c0.842-0.601,1.421-1.16,1.758-1.7
			C8.791,5.282,8.975,4.598,8.975,3.83c0-1.166-0.46-2.157-1.331-2.866C6.823,0.294,5.738-0.046,4.419-0.046L4.419-0.046z"/>
	</g>
</g>
</svg>
