<?xml version="1.0" encoding="utf-8"?>
<!-- Generator: Adobe Illustrator 17.0.0, SVG Export Plug-In . SVG Version: 6.00 Build 0)  -->
<!DOCTYPE svg PUBLIC "-//W3C//DTD SVG 1.1//EN" "http://www.w3.org/Graphics/SVG/1.1/DTD/svg11.dtd">
<svg version="1.1" id="Layer_1" xmlns="http://www.w3.org/2000/svg" xmlns:xlink="http://www.w3.org/1999/xlink" x="0px" y="0px"
	 width="17.839px" height="16px" viewBox="26.969 2 17.839 16" enable-background="new 26.969 2 17.839 16" xml:space="preserve">
<path fill="#231F20" d="M35.4,17.8l-6.803-6.803c-0.713-0.709-1.221-1.549-1.468-2.467c-0.233-0.872-0.219-1.807,0.099-2.756
	c0.275-0.829,0.755-1.577,1.376-2.184c0.621-0.607,1.383-1.08,2.216-1.345c0.981-0.31,1.941-0.314,2.844-0.077
	c0.805,0.212,1.56,0.618,2.223,1.171c0.67-0.554,1.426-0.96,2.23-1.171c0.903-0.237,1.863-0.229,2.844,0.081
	c0.833,0.265,1.595,0.734,2.216,1.345c0.621,0.603,1.101,1.355,1.376,2.181v0.004V5.774c0.318,0.946,0.325,1.884,0.092,2.756
	c-0.247,0.917-0.755,1.757-1.468,2.467l-0.035,0.035L36.367,17.8c-0.261,0.268-0.692,0.265-0.96,0H35.4L35.4,17.8z M36.698,4.447
	L36.698,4.447L36.698,4.447L34.51,6.635c-0.162,0.159-0.416,0.162-0.586,0c-0.155-0.159-0.155-0.416,0-0.579l1.397-1.394
	l-0.028-0.021c-0.586-0.558-1.256-0.96-1.976-1.15c-0.663-0.173-1.369-0.169-2.082,0.056c-0.628,0.198-1.2,0.554-1.673,1.02
	c-0.473,0.459-0.833,1.02-1.037,1.637c-0.226,0.678-0.24,1.348-0.071,1.973c0.184,0.674,0.572,1.306,1.115,1.849l6.317,6.32
	l6.288-6.285l0.035-0.035c0.543-0.543,0.932-1.175,1.108-1.846c0.169-0.624,0.155-1.295-0.071-1.976h0.007
	C43.05,5.59,42.69,5.026,42.217,4.571c-0.473-0.466-1.044-0.822-1.673-1.02c-0.713-0.226-1.418-0.233-2.082-0.06
	C37.834,3.657,37.235,3.988,36.698,4.447L36.698,4.447z"/>
</svg>
